# xmcd CD database file
#
# Track frame offsets:
#	150
#	16131
#	27773
#	43692
#	57630
#	71679
#	82477
#	95379
#	109084
#	122516
#	135191
#	146734
#	159164
#	172129
#	184329
#
# Disc length: 2627 seconds
#
# Revision: 1
# Processed by: cddbd v1.5.2PL0 Copyright (c) Steve Scherf et al.
# Submitted via: CDex 1.51
#
DISCID=cf0a410f
DTITLE=Die Mayrhofner - Für einen Tag Tiroler sein
DYEAR=1900
DGENRE=Folk
TTITLE0=Die Mayrhofner - Für einen Tag Tiroler sein
TTITLE1=Die Mayrhofner - Stammtisch-Polka
TTITLE2=Die Mayrhofner - Holzknecht-Lied
TTITLE3=Die Mayrhofner - Hirtengebet
TTITLE4=Die Mayrhofner - Mir hau´n no lang nit den Hut drauf
TTITLE5=Die Mayrhofner - Schotta Ladra Aschenwald
TTITLE6=Die Mayrhofner - In der Bauerndiskothek
TTITLE7=Die Mayrhofner - I bin a freia Jaga
TTITLE8=Die Mayrhofner - Alles Bingo, Alles Roger, alles Super
TTITLE9=Die Mayrhofner - Franz Klammer Borarischer
TTITLE10=Die Mayrhofner - Einfach lustig
TTITLE11=Die Mayrhofner - Im Volksmusikmuseum
TTITLE12=Die Mayrhofner - Der Alpi
TTITLE13=Die Mayrhofner - Almenrausch und Edelweiß
TTITLE14=Die Mayrhofner - Frag die Eulen aus Athen
EXTD=
EXTT0=
EXTT1=
EXTT2=
EXTT3=
EXTT4=
EXTT5=
EXTT6=
EXTT7=
EXTT8=
EXTT9=
EXTT10=
EXTT11=
EXTT12=
EXTT13=
EXTT14=
PLAYORDER=
